<svg width="200" height="200" viewBox="0 0 200 200" fill="none" xmlns="http://www.w3.org/2000/svg">
<path fill-rule="evenodd" clip-rule="evenodd" d="M10.5 1.665C8.85 2.537 6.665 3.981 5.644 4.875C4.623 5.769 2.935 8.17 1.894 10.21C0.212999 13.503 0 16.287 0 34.96C0 55.07 0.0849994 56 1.928 56C3.759 56 3.871 54.962 4.178 35.25C4.482 15.677 4.626 14.323 6.724 11.382C7.947 9.667 10.197 7.417 11.724 6.382C14.177 4.719 16.912 4.463 35.25 4.178C54.962 3.871 56 3.759 56 1.928C56 0.0829995 55.081 0.00200092 34.75 0.0400009C17.338 0.0730009 12.958 0.366001 10.5 1.665ZM144 1.928C144 3.759 145.038 3.871 164.75 4.178C184.323 4.482 185.677 4.626 188.618 6.724C190.333 7.947 192.583 10.197 193.618 11.724C195.281 14.177 195.537 16.912 195.822 35.25C196.129 54.962 196.241 56 198.072 56C199.915 56 200 55.07 200 34.96C200 16.287 199.787 13.503 198.106 10.21C197.065 8.17 195.377 5.767 194.356 4.871C193.335 3.974 191.06 2.512 189.3 1.621C186.651 0.279 182.473 0 165.05 0C144.93 0 144 0.0849994 144 1.928ZM170 18V22H165.5C163.025 22 161 22.45 161 23C161 23.55 163.025 24 165.5 24H170V28C170 30.2 170.45 32 171 32C171.55 32 172 30.2 172 28V24H176C178.2 24 180 23.55 180 23C180 22.45 178.2 22 176 22H172V18C172 15.8 171.55 14 171 14C170.45 14 170 15.8 170 18ZM106 23C106 23.55 106.675 24 107.5 24C108.325 24 109 23.55 109 23C109 22.45 108.325 22 107.5 22C106.675 22 106 22.45 106 23ZM112 23C112 23.55 112.9 24 114 24C115.1 24 116 23.55 116 23C116 22.45 115.1 22 114 22C112.9 22 112 22.45 112 23ZM119 23C119 23.55 119.9 24 121 24C122.1 24 123 23.55 123 23C123 22.45 122.1 22 121 22C119.9 22 119 22.45 119 23ZM126 23C126 23.55 126.9 24 128 24C129.1 24 130 23.55 130 23C130 22.45 129.1 22 128 22C126.9 22 126 22.45 126 23ZM133 23C133 23.55 133.9 24 135 24C136.1 24 137 23.55 137 23C137 22.45 136.1 22 135 22C133.9 22 133 22.45 133 23ZM140 23C140 23.55 140.9 24 142 24C143.1 24 144 23.55 144 23C144 22.45 143.1 22 142 22C140.9 22 140 22.45 140 23ZM147 23C147 23.55 147.9 24 149 24C150.1 24 151 23.55 151 23C151 22.45 150.1 22 149 22C147.9 22 147 22.45 147 23ZM154 23C154 23.55 154.9 24 156 24C157.1 24 158 23.55 158 23C158 22.45 157.1 22 156 22C154.9 22 154 22.45 154 23ZM0 165.05C0 182.473 0.279 186.651 1.621 189.3C2.512 191.06 3.974 193.335 4.871 194.356C5.767 195.377 8.17 197.065 10.21 198.106C13.503 199.787 16.287 200 34.96 200C55.07 200 56 199.915 56 198.072C56 196.241 54.962 196.129 35.25 195.822C16.912 195.537 14.177 195.281 11.724 193.618C10.197 192.583 7.947 190.333 6.724 188.618C4.626 185.677 4.482 184.323 4.178 164.75C3.871 145.038 3.759 144 1.928 144C0.0849994 144 0 144.93 0 165.05ZM195.822 164.75C195.518 184.323 195.374 185.677 193.276 188.618C192.053 190.333 189.803 192.583 188.276 193.618C185.823 195.281 183.088 195.537 164.75 195.822C145.038 196.129 144 196.241 144 198.072C144 199.915 144.93 200 165.04 200C183.713 200 186.497 199.787 189.79 198.106C191.83 197.065 194.233 195.377 195.129 194.356C196.026 193.335 197.488 191.06 198.379 189.3C199.721 186.651 200 182.473 200 165.05C200 144.93 199.915 144 198.072 144C196.241 144 196.129 145.038 195.822 164.75ZM28 172V176H24C21.8 176 20 176.45 20 177C20 177.55 21.8 178 24 178H28V182C28 184.2 28.45 186 29 186C29.55 186 30 184.2 30 182V178H34.5C36.975 178 39 177.55 39 177C39 176.45 36.975 176 34.5 176H30V172C30 169.8 29.55 168 29 168C28.45 168 28 169.8 28 172ZM42 177C42 177.55 42.9 178 44 178C45.1 178 46 177.55 46 177C46 176.45 45.1 176 44 176C42.9 176 42 176.45 42 177ZM49 177C49 177.55 49.9 178 51 178C52.1 178 53 177.55 53 177C53 176.45 52.1 176 51 176C49.9 176 49 176.45 49 177ZM56 177C56 177.55 56.9 178 58 178C59.1 178 60 177.55 60 177C60 176.45 59.1 176 58 176C56.9 176 56 176.45 56 177ZM63 177C63 177.55 63.9 178 65 178C66.1 178 67 177.55 67 177C67 176.45 66.1 176 65 176C63.9 176 63 176.45 63 177ZM70 177C70 177.55 70.9 178 72 178C73.1 178 74 177.55 74 177C74 176.45 73.1 176 72 176C70.9 176 70 176.45 70 177ZM77 177C77 177.55 77.9 178 79 178C80.1 178 81 177.55 81 177C81 176.45 80.1 176 79 176C77.9 176 77 176.45 77 177ZM84 177C84 177.55 84.9 178 86 178C87.1 178 88 177.55 88 177C88 176.45 87.1 176 86 176C84.9 176 84 176.45 84 177ZM91 177C91 177.55 91.675 178 92.5 178C93.325 178 94 177.55 94 177C94 176.45 93.325 176 92.5 176C91.675 176 91 176.45 91 177Z" fill="#66FCF1"/>
<path d="M138.23 49.2429L128.978 58.509L129.142 59.9867C129.213 60.8075 129.353 62.3562 129.424 63.4583L129.565 65.4522L114.912 80.0444L100.284 94.6121L98.5228 94.7063C96.5269 94.8237 95.3061 95.3399 94.0853 96.5827C91.5959 99.0464 91.5261 103.316 93.898 105.755C95.2131 107.092 96.4339 107.631 98.36 107.749C100.356 107.866 101.742 107.396 103.173 106.059C104.628 104.722 105.145 103.572 105.286 101.461L105.38 99.702L119.962 85.0879L134.568 70.4492L136.681 70.5899C137.856 70.6608 139.405 70.8015 140.156 70.8712L141.543 71.0351L150.841 61.7458C155.96 56.6314 160.07 52.3854 159.999 52.2925C159.905 52.2215 157.816 51.6356 155.326 51.0252C152.86 50.3915 150.677 49.7347 150.489 49.5475C150.301 49.3591 149.737 47.5304 149.221 45.4888C147.883 40.1407 147.835 40 147.648 40C147.553 40.0012 143.303 44.153 138.23 49.2429Z" fill="#66FCF1"/>
<path d="M91.4784 42.9334C70.2973 45.5609 51.9815 59.7054 44.0922 79.5282C42.0963 84.5484 41.0163 88.8175 40.2645 94.6586C39.9118 97.521 39.9118 104.886 40.2645 107.912C42.4012 125.248 51.7697 140.566 66.1182 150.113C80.3479 159.59 97.8653 162.406 114.326 157.902C133.182 152.718 148.352 138.314 154.48 119.758C156.64 113.285 157.462 108.1 157.462 101.062C157.462 92.946 155.983 85.6505 152.789 78.097C151.404 74.8835 149.549 71.4351 149.173 71.4351C148.821 71.4351 144.312 75.9159 144.312 76.267C144.312 76.4309 144.899 77.7447 145.604 79.2223C147.812 83.8205 149.478 89.5209 150.207 95.0096C150.606 98.1057 150.56 105.027 150.066 108.264C148.963 115.935 146.144 123.394 142.035 129.611C133.746 142.115 121.042 150.184 106.037 152.531C102.069 153.141 94.7196 153.093 90.7743 152.413C83.0013 151.099 76.4038 148.543 70.2043 144.438C51.6289 132.122 42.9877 109.602 48.6008 88.0897C51.7477 75.9612 59.5194 65.1941 70.3451 57.9696C73.2104 56.0454 78.6813 53.3946 82.1099 52.246C88.1686 50.2288 92.3012 49.572 98.7579 49.572C106.882 49.5487 113.739 51.0729 120.807 54.4515C122.263 55.1549 123.578 55.7188 123.719 55.7188C124.072 55.7188 128.58 51.2148 128.58 50.8869C128.58 50.4882 125.175 48.6349 121.888 47.2514C116.652 45.0459 111.65 43.6857 105.968 42.9346C102.586 42.5113 95.0245 42.5113 91.4784 42.9334Z" fill="#66FCF1"/>
<path d="M94.2959 62.8956C83.9405 64.1861 74.3834 69.6516 68.0431 77.8621C64.1688 82.9056 61.3268 89.7325 60.4819 96.0653C60.1292 98.6219 60.1292 103.829 60.4819 106.387C62.877 124.403 77.8352 138.431 95.9392 139.651C106.412 140.354 116.251 137.071 124.117 130.267C130.386 124.825 134.731 117.343 136.609 108.733C137.055 106.599 137.126 105.59 137.126 101.226C137.126 95.5491 136.821 93.4378 135.223 88.7931C134.237 85.9074 132.24 81.8022 131.725 81.5918C131.466 81.4976 130.621 82.1777 129 83.7973L126.628 86.1668L127.708 88.7001C129.611 93.2751 130.244 96.3711 130.244 101.11C130.244 106.435 129.187 111.01 126.91 115.466C118.952 131.089 99.8844 137.306 84.3629 129.33C71.3773 122.667 64.568 107.889 68.0198 93.8378C71.0259 81.593 81.1928 72.1153 93.4743 70.1446C99.5563 69.1587 105.826 69.933 111.532 72.3966C112.988 73.007 113.739 73.2174 113.998 73.0767C114.208 72.9593 115.313 71.9269 116.464 70.7782C117.873 69.3238 118.506 68.5495 118.413 68.2914C118.201 67.7752 113.905 65.6638 111.11 64.7488C106.884 63.3409 104.56 62.9666 99.5808 62.8724C97.1367 62.8259 94.7416 62.8491 94.2959 62.8956Z" fill="#66FCF1"/>
<path d="M95.3526 82.3429C91.5482 83.0462 88.449 84.6181 85.7013 87.2224C83.4238 89.3802 81.9201 91.4916 80.9111 94.0494C75.652 107.161 85.7956 121.236 99.8844 120.392C102.75 120.228 105.074 119.571 107.798 118.163C109.513 117.272 110.334 116.662 112.143 114.832C113.364 113.613 114.726 111.994 115.172 111.267C117.473 107.325 118.389 102.869 117.779 98.5987C117.333 95.3619 117.403 95.3619 113.998 98.8103C111.204 101.648 111.015 101.883 110.851 102.985C110.288 106.856 107.563 110.562 104.088 112.228C102.186 113.12 100.941 113.401 98.7579 113.424C95.3771 113.424 92.4886 112.251 90.1168 109.859C87.7217 107.489 86.5474 104.651 86.5474 101.344C86.5474 97.7081 87.5576 95.2677 90.1866 92.6634C92.3233 90.5056 93.6849 89.8487 97.8187 88.9337C98.1469 88.8628 99.6738 87.5258 101.317 85.8842L104.252 82.952L103.618 82.7172C101.716 81.9906 98.1004 81.8267 95.3526 82.3429Z" fill="#66FCF1"/>
</svg>
