<svg width="200" height="200" viewBox="0 0 200 200" fill="none" xmlns="http://www.w3.org/2000/svg">
<path fill-rule="evenodd" clip-rule="evenodd" d="M10.5 1.665C8.85 2.537 6.665 3.981 5.644 4.875C4.623 5.769 2.935 8.17 1.894 10.21C0.212999 13.503 0 16.287 0 34.96C0 55.07 0.0849994 56 1.928 56C3.759 56 3.871 54.962 4.178 35.25C4.482 15.677 4.626 14.323 6.724 11.382C7.947 9.667 10.197 7.417 11.724 6.382C14.177 4.719 16.912 4.463 35.25 4.178C54.962 3.871 56 3.759 56 1.928C56 0.0829995 55.081 0.00200092 34.75 0.0400009C17.338 0.0730009 12.958 0.366001 10.5 1.665ZM144 1.928C144 3.759 145.038 3.871 164.75 4.178C184.323 4.482 185.677 4.626 188.618 6.724C190.333 7.947 192.583 10.197 193.618 11.724C195.281 14.177 195.537 16.912 195.822 35.25C196.129 54.962 196.241 56 198.072 56C199.915 56 200 55.07 200 34.96C200 16.287 199.787 13.503 198.106 10.21C197.065 8.17 195.377 5.767 194.356 4.871C193.335 3.974 191.06 2.512 189.3 1.621C186.651 0.279 182.473 0 165.05 0C144.93 0 144 0.0849994 144 1.928ZM170 18V22H165.5C163.025 22 161 22.45 161 23C161 23.55 163.025 24 165.5 24H170V28C170 30.2 170.45 32 171 32C171.55 32 172 30.2 172 28V24H176C178.2 24 180 23.55 180 23C180 22.45 178.2 22 176 22H172V18C172 15.8 171.55 14 171 14C170.45 14 170 15.8 170 18ZM106 23C106 23.55 106.675 24 107.5 24C108.325 24 109 23.55 109 23C109 22.45 108.325 22 107.5 22C106.675 22 106 22.45 106 23ZM112 23C112 23.55 112.9 24 114 24C115.1 24 116 23.55 116 23C116 22.45 115.1 22 114 22C112.9 22 112 22.45 112 23ZM119 23C119 23.55 119.9 24 121 24C122.1 24 123 23.55 123 23C123 22.45 122.1 22 121 22C119.9 22 119 22.45 119 23ZM126 23C126 23.55 126.9 24 128 24C129.1 24 130 23.55 130 23C130 22.45 129.1 22 128 22C126.9 22 126 22.45 126 23ZM133 23C133 23.55 133.9 24 135 24C136.1 24 137 23.55 137 23C137 22.45 136.1 22 135 22C133.9 22 133 22.45 133 23ZM140 23C140 23.55 140.9 24 142 24C143.1 24 144 23.55 144 23C144 22.45 143.1 22 142 22C140.9 22 140 22.45 140 23ZM147 23C147 23.55 147.9 24 149 24C150.1 24 151 23.55 151 23C151 22.45 150.1 22 149 22C147.9 22 147 22.45 147 23ZM154 23C154 23.55 154.9 24 156 24C157.1 24 158 23.55 158 23C158 22.45 157.1 22 156 22C154.9 22 154 22.45 154 23ZM24.174 38.314L22 40.629V93.14V145.651L24.314 147.826C25.587 149.022 27.837 150 29.314 150C31.858 150 32 150.256 32 154.826C32 158.577 32.515 160.135 34.314 161.826L36.629 164H105.14H173.651L175.826 161.686L178 159.371V106.86V54.349L175.686 52.174C174.413 50.978 172.163 50 170.686 50C168.142 50 168 49.744 168 45.174C168 41.423 167.485 39.865 165.686 38.174L163.371 36H94.86H26.349L24.174 38.314ZM162 42C163.111 43.111 164 45.333 164 47V50H100.314H36.629L34.314 52.174L32 54.349V100.174C32 130.058 31.652 146 31 146C30.45 146 29.1 145.1 28 144C26.054 142.054 26 140.667 26 93C26 45.333 26.054 43.946 28 42C29.959 40.041 31.333 40 95 40C158.667 40 160.041 40.041 162 42ZM172 56C173.872 57.872 174 59.333 174 78.885V99.77L160.25 107.577C152.688 111.871 145.037 116.242 143.25 117.291L140 119.198V113.51V107.822L143.077 110.411C144.769 111.835 146.583 113 147.108 113C147.633 113 148.335 112.29 148.668 111.423C149.065 110.388 147.68 108.229 144.637 105.139C142.086 102.55 140 99.844 140 99.127C140 98.332 141.203 98.835 143.077 100.411C144.769 101.835 146.583 103 147.108 103C147.633 103 148.335 102.292 148.667 101.426C149.06 100.402 147.753 98.306 144.927 95.426C142.085 92.53 139.719 91 138.084 91C136.551 91 134.118 92.431 131.792 94.703C129.706 96.74 128 99.188 128 100.144C128 101.1 128.487 102.183 129.081 102.55C129.676 102.918 131.476 101.96 133.081 100.422C135.072 98.515 136 98.097 136 99.11C136 99.926 134.2 102.352 132 104.5C129.8 106.648 128 109.188 128 110.144C128 111.1 128.487 112.183 129.081 112.55C129.676 112.918 131.476 111.96 133.081 110.422L136 107.626V114.661V121.696L131.903 123.544C129.65 124.56 126.289 125.348 124.433 125.295C122.578 125.243 115.984 123.166 109.78 120.681C103.576 118.196 95.859 115.633 92.631 114.986C89.372 114.332 84.741 114.112 82.217 114.49C79.718 114.865 73.809 116.533 69.087 118.197C64.364 119.861 55.55 123.459 49.5 126.191C43.45 128.924 37.938 131.397 37.25 131.687C36.263 132.103 36 124.407 36 95.107C36 59.333 36.072 57.928 38 56C39.959 54.041 41.333 54 105 54C168.667 54 170.041 54.041 172 56ZM56.299 65.96C54.538 67.033 52.4 69.259 51.549 70.906C50.697 72.553 50.002 75.836 50.004 78.2C50.006 80.699 50.825 83.841 51.96 85.701C53.033 87.462 55.259 89.6 56.906 90.451C58.553 91.303 61.745 92 64 92C66.255 92 69.447 91.303 71.094 90.451C72.741 89.6 74.967 87.462 76.04 85.701C77.175 83.841 77.994 80.699 77.996 78.2C77.998 75.836 77.303 72.553 76.451 70.906C75.6 69.259 73.462 67.033 71.701 65.96C69.778 64.787 66.703 64.007 64 64.007C61.297 64.007 58.222 64.787 56.299 65.96ZM70.545 71.455C72.352 73.261 73 74.99 73 78C73 81.01 72.352 82.739 70.545 84.545C68.739 86.352 67.01 87 64 87C60.99 87 59.261 86.352 57.455 84.545C55.648 82.739 55 81.01 55 78C55 74.99 55.648 73.261 57.455 71.455C59.261 69.648 60.99 69 64 69C67.01 69 68.739 69.648 70.545 71.455ZM0 165.05C0 182.473 0.279 186.651 1.621 189.3C2.512 191.06 3.974 193.335 4.871 194.356C5.767 195.377 8.17 197.065 10.21 198.106C13.503 199.787 16.287 200 34.96 200C55.07 200 56 199.915 56 198.072C56 196.241 54.962 196.129 35.25 195.822C16.912 195.537 14.177 195.281 11.724 193.618C10.197 192.583 7.947 190.333 6.724 188.618C4.626 185.677 4.482 184.323 4.178 164.75C3.871 145.038 3.759 144 1.928 144C0.0849994 144 0 144.93 0 165.05ZM195.822 164.75C195.518 184.323 195.374 185.677 193.276 188.618C192.053 190.333 189.803 192.583 188.276 193.618C185.823 195.281 183.088 195.537 164.75 195.822C145.038 196.129 144 196.241 144 198.072C144 199.915 144.93 200 165.04 200C183.713 200 186.497 199.787 189.79 198.106C191.83 197.065 194.233 195.377 195.129 194.356C196.026 193.335 197.488 191.06 198.379 189.3C199.721 186.651 200 182.473 200 165.05C200 144.93 199.915 144 198.072 144C196.241 144 196.129 145.038 195.822 164.75ZM28 172V176H24C21.8 176 20 176.45 20 177C20 177.55 21.8 178 24 178H28V182C28 184.2 28.45 186 29 186C29.55 186 30 184.2 30 182V178H34.5C36.975 178 39 177.55 39 177C39 176.45 36.975 176 34.5 176H30V172C30 169.8 29.55 168 29 168C28.45 168 28 169.8 28 172ZM42 177C42 177.55 42.9 178 44 178C45.1 178 46 177.55 46 177C46 176.45 45.1 176 44 176C42.9 176 42 176.45 42 177ZM49 177C49 177.55 49.9 178 51 178C52.1 178 53 177.55 53 177C53 176.45 52.1 176 51 176C49.9 176 49 176.45 49 177ZM56 177C56 177.55 56.9 178 58 178C59.1 178 60 177.55 60 177C60 176.45 59.1 176 58 176C56.9 176 56 176.45 56 177ZM63 177C63 177.55 63.9 178 65 178C66.1 178 67 177.55 67 177C67 176.45 66.1 176 65 176C63.9 176 63 176.45 63 177ZM70 177C70 177.55 70.9 178 72 178C73.1 178 74 177.55 74 177C74 176.45 73.1 176 72 176C70.9 176 70 176.45 70 177ZM77 177C77 177.55 77.9 178 79 178C80.1 178 81 177.55 81 177C81 176.45 80.1 176 79 176C77.9 176 77 176.45 77 177ZM84 177C84 177.55 84.9 178 86 178C87.1 178 88 177.55 88 177C88 176.45 87.1 176 86 176C84.9 176 84 176.45 84 177ZM91 177C91 177.55 91.675 178 92.5 178C93.325 178 94 177.55 94 177C94 176.45 93.325 176 92.5 176C91.675 176 91 176.45 91 177Z" fill="#66FCF1"/>
</svg>
