<svg width="239" height="200" viewBox="0 0 239 200" fill="none" xmlns="http://www.w3.org/2000/svg">
<path fill-rule="evenodd" clip-rule="evenodd" d="M30.9891 4V8H26.9891C24.7891 8 22.9891 8.45 22.9891 9C22.9891 9.55 24.7891 10 26.9891 10H30.9891V14.5C30.9891 16.975 31.4391 19 31.9891 19C32.5391 19 32.9891 16.975 32.9891 14.5V10H36.9891C39.1891 10 40.9891 9.55 40.9891 9C40.9891 8.45 39.1891 8 36.9891 8H32.9891V4C32.9891 1.8 32.5391 0 31.9891 0C31.4391 0 30.9891 1.8 30.9891 4ZM70.4891 3.89C68.2891 4.905 65.4981 6.814 64.2871 8.132C63.0751 9.449 61.3881 12.194 60.5371 14.232C59.2541 17.3 58.9891 23.172 58.9891 48.468C58.9891 78.333 59.0331 79 60.9891 79C62.9351 79 62.9891 78.333 62.9891 54.5V30H118.989H174.989V68.099C174.989 101.179 174.775 106.648 173.366 109.619C172.473 111.5 170.335 114.043 168.616 115.27C165.669 117.372 164.325 117.518 145.234 117.807C125.535 118.106 125.008 118.168 126.02 120.057C126.991 121.872 128.262 122 145.312 122C162.27 122 163.878 121.84 167.969 119.75C170.391 118.512 173.749 115.771 175.431 113.658L178.489 109.816L178.795 64.658C179 34.333 178.745 18.283 178.018 15.795C177.423 13.757 175.729 10.656 174.254 8.903C172.779 7.15 169.753 4.889 167.53 3.88C163.803 2.187 160.027 2.044 118.989 2.044C77.8371 2.044 74.1881 2.183 70.4891 3.89ZM167.495 12.252C169.24 13.752 170.297 15.877 170.665 18.622C171.014 21.222 170.79 23.005 170.059 23.456C169.423 23.85 168.246 23.628 167.445 22.964C166.644 22.299 165.989 20.74 165.989 19.5C165.989 18.26 165.348 16.713 164.564 16.062C163.78 15.412 161.868 14.713 160.314 14.509C158.76 14.305 157.151 14.107 156.739 14.069C156.327 14.031 155.989 13.1 155.989 12C155.989 10.3 156.656 10 160.433 10C163.601 10 165.629 10.647 167.495 12.252ZM30.9891 24.5C30.9891 25.325 31.4391 26 31.9891 26C32.5391 26 32.9891 25.325 32.9891 24.5C32.9891 23.675 32.5391 23 31.9891 23C31.4391 23 30.9891 23.675 30.9891 24.5ZM30.9891 31.5C30.9891 32.325 31.4391 33 31.9891 33C32.5391 33 32.9891 32.325 32.9891 31.5C32.9891 30.675 32.5391 30 31.9891 30C31.4391 30 30.9891 30.675 30.9891 31.5ZM95.4331 37.286C95.1261 38.085 95.0131 41.16 95.1821 44.119C95.4091 48.099 95.8801 49.5 96.9891 49.5C98.1661 49.5 98.4891 48.12 98.4891 43.083C98.4891 38.84 98.0661 36.526 97.2401 36.25C96.5521 36.021 95.7391 36.487 95.4331 37.286ZM119.656 36.667C119.289 37.033 118.989 43.783 118.989 51.667C118.989 64.799 119.161 66.172 121.046 68.057C122.539 69.55 124.116 70.03 126.796 69.807C129.72 69.564 130.489 69.084 130.489 67.5C130.489 65.976 129.656 65.381 126.989 65L123.489 64.5L123.212 50.25C122.999 39.333 122.629 36 121.628 36C120.91 36 120.022 36.3 119.656 36.667ZM143.433 37.286C143.126 38.085 143.013 41.16 143.182 44.119C143.409 48.099 143.88 49.5 144.989 49.5C146.166 49.5 146.489 48.12 146.489 43.083C146.489 38.84 146.066 36.526 145.24 36.25C144.552 36.021 143.739 36.487 143.433 37.286ZM30.9891 38C30.9891 38.55 31.4391 39 31.9891 39C32.5391 39 32.9891 38.55 32.9891 38C32.9891 37.45 32.5391 37 31.9891 37C31.4391 37 30.9891 37.45 30.9891 38ZM202.989 44V48H198.989C196.789 48 194.989 48.45 194.989 49C194.989 49.55 196.789 50 198.989 50H202.989V54.5C202.989 56.975 203.439 59 203.989 59C204.539 59 204.989 56.975 204.989 54.5V50H208.989C211.189 50 212.989 49.55 212.989 49C212.989 48.45 211.189 48 208.989 48H204.989V44C204.989 41.8 204.539 40 203.989 40C203.439 40 202.989 41.8 202.989 44ZM30.9891 44.5C30.9891 45.325 31.4391 46 31.9891 46C32.5391 46 32.9891 45.325 32.9891 44.5C32.9891 43.675 32.5391 43 31.9891 43C31.4391 43 30.9891 43.675 30.9891 44.5ZM30.9891 51.5C30.9891 52.325 31.4391 53 31.9891 53C32.5391 53 32.9891 52.325 32.9891 51.5C32.9891 50.675 32.5391 50 31.9891 50C31.4391 50 30.9891 50.675 30.9891 51.5ZM30.9891 58.5C30.9891 59.325 31.4391 60 31.9891 60C32.5391 60 32.9891 59.325 32.9891 58.5C32.9891 57.675 32.5391 57 31.9891 57C31.4391 57 30.9891 57.675 30.9891 58.5ZM202.989 64.5C202.989 65.325 203.439 66 203.989 66C204.539 66 204.989 65.325 204.989 64.5C204.989 63.675 204.539 63 203.989 63C203.439 63 202.989 63.675 202.989 64.5ZM30.9891 65.5C30.9891 66.325 31.4391 67 31.9891 67C32.5391 67 32.9891 66.325 32.9891 65.5C32.9891 64.675 32.5391 64 31.9891 64C31.4391 64 30.9891 64.675 30.9891 65.5ZM202.989 71.5C202.989 72.325 203.439 73 203.989 73C204.539 73 204.989 72.325 204.989 71.5C204.989 70.675 204.539 70 203.989 70C203.439 70 202.989 70.675 202.989 71.5ZM30.9891 72.5C30.9891 73.325 31.4391 74 31.9891 74C32.5391 74 32.9891 73.325 32.9891 72.5C32.9891 71.675 32.5391 71 31.9891 71C31.4391 71 30.9891 71.675 30.9891 72.5ZM183.15 75.614C183.458 77.225 184.749 77.589 192 78.112C196.669 78.449 202.506 79.282 204.972 79.964C207.438 80.645 211.659 82.319 214.353 83.684C217.047 85.049 221.343 88.266 223.902 90.833C226.46 93.4 229.571 97.677 230.817 100.339C232.062 103 233.475 107.275 233.957 109.839C234.464 112.537 234.455 116.5 233.936 119.249C233.443 121.862 232.392 125.237 231.599 126.749C230.807 128.262 228.539 131.38 226.558 133.678C224.577 135.976 220.222 139.682 216.88 141.914C213.538 144.146 207.133 147.139 202.646 148.565C197.56 150.183 191.101 151.358 185.489 151.686C179.079 152.061 174.51 151.747 169.613 150.592C165.832 149.7 159.288 147.176 155.071 144.982C150.855 142.788 143.715 138.041 139.205 134.433C134.695 130.824 128.414 124.872 125.247 121.206C122.08 117.539 116.339 111.219 112.489 107.161C108.639 103.102 102.789 97.859 99.4891 95.509C96.1891 93.159 90.7531 89.865 87.4091 88.189C84.0651 86.514 78.6461 84.448 75.3661 83.598C72.0861 82.748 66.2131 81.756 62.3151 81.394C58.2261 81.014 51.7271 81.247 46.9541 81.945C42.4031 82.61 35.4861 84.297 31.5841 85.693C27.6821 87.09 21.4741 90.225 17.7881 92.66C14.1021 95.096 9.71806 98.816 8.04606 100.929C6.37306 103.041 3.88007 107.183 2.50607 110.134C0.596075 114.237 0.00608588 117.147 8.58839e-05 122.5C-0.00791412 128.161 0.540078 130.648 2.86208 135.5C4.44208 138.8 7.52206 143.412 9.70806 145.75C11.8941 148.088 14.4261 150 15.3351 150C16.2451 150 16.9891 149.507 16.9891 148.903C16.9891 148.3 15.1431 145.713 12.8861 143.153C10.6301 140.594 7.82506 136.7 6.65406 134.5C4.99106 131.378 4.52408 128.744 4.52408 122.5C4.52408 116.04 4.97406 113.65 6.86306 110.082C8.14906 107.651 11.3281 103.592 13.9271 101.061C16.5251 98.53 21.3991 94.994 24.7561 93.205C28.1141 91.415 34.3771 89.024 38.6751 87.89C44.0801 86.465 49.8811 85.795 57.4891 85.718C65.4171 85.639 70.1651 86.107 74.4891 87.395C77.7891 88.378 83.8641 90.943 87.9891 93.095C92.1141 95.248 98.4791 99.594 102.133 102.754C105.787 105.915 112.481 112.775 117.009 118C121.536 123.225 128.416 130.323 132.296 133.773C136.176 137.223 141.742 141.633 144.665 143.573C147.588 145.513 152.794 148.411 156.234 150.012C159.674 151.613 165.171 153.615 168.449 154.461C171.727 155.308 177.802 155.992 181.949 155.983C186.096 155.973 192.426 155.343 196.015 154.582C199.604 153.821 205.229 152.105 208.515 150.769L214.489 148.34L213.989 168.42C213.642 182.354 213.087 189.205 212.175 190.804C211.453 192.07 209.428 193.981 207.675 195.05C204.69 196.87 202.403 196.993 171.489 196.995C142.07 196.997 138.109 196.807 134.989 195.248C133.029 194.269 130.744 192.008 129.797 190.11C128.342 187.196 128.093 182.997 128.021 160.168C127.975 145.564 127.754 133.432 127.53 133.208C127.306 132.983 126.642 133.096 126.056 133.459C125.342 133.9 124.989 143.134 124.989 161.325C124.989 185.914 125.167 188.864 126.844 191.991C127.939 194.031 130.465 196.383 133.002 197.725C137.231 199.961 137.874 200 170.989 200C204.104 200 204.747 199.961 208.976 197.725C211.515 196.382 214.045 194.026 215.148 191.975C216.829 188.851 216.992 186.427 216.754 168L216.489 147.5L222.034 143.403C225.083 141.15 229.029 137.473 230.804 135.233C232.578 132.992 235.023 128.986 236.237 126.33C237.883 122.729 238.425 119.718 238.366 114.5C238.314 109.882 237.558 105.628 236.145 102C234.966 98.975 232.312 94.288 230.245 91.584C228.179 88.879 224.014 84.956 220.989 82.865C217.964 80.773 212.789 78.103 209.489 76.93C205.522 75.52 199.983 74.617 193.14 74.263C183.39 73.76 182.811 73.838 183.15 75.614ZM99.4711 81.028C99.0861 81.652 100.041 83.489 101.595 85.11C103.148 86.732 106.769 89.17 109.642 90.529C113.348 92.282 116.568 93 120.731 93C124.978 93 127.976 92.312 131.599 90.507C134.35 89.136 137.9 86.658 139.488 85.001C141.633 82.762 142.085 81.696 141.247 80.858C140.409 80.02 139.137 80.501 136.304 82.728C134.206 84.377 130.956 86.511 129.083 87.47C126.581 88.75 124.018 89.107 119.434 88.816C114.169 88.48 112.276 87.798 107.341 84.459C104.122 82.282 101.193 80.364 100.831 80.197C100.469 80.031 99.8571 80.405 99.4711 81.028ZM202.989 84.5C202.989 85.325 203.439 86 203.989 86C204.539 86 204.989 85.325 204.989 84.5C204.989 83.675 204.539 83 203.989 83C203.439 83 202.989 83.675 202.989 84.5ZM59.1571 97.983C59.4791 109.459 59.5831 109.939 62.5471 113.661C64.2291 115.772 67.5871 118.512 70.0091 119.75C74.1711 121.876 75.5901 122 95.8561 122C117.236 122 117.294 121.994 115.489 120C113.797 118.131 112.409 118 94.2351 118C78.3671 118 74.1621 117.701 71.3701 116.377C69.4891 115.484 66.9461 113.346 65.7191 111.627C63.8161 108.958 63.4401 106.939 63.1531 97.844C62.8491 88.186 62.6301 87.139 60.8211 86.666C58.8961 86.163 58.8371 86.565 59.1571 97.983ZM202.989 91.5C202.989 92.325 203.439 93 203.989 93C204.539 93 204.989 92.325 204.989 91.5C204.989 90.675 204.539 90 203.989 90C203.439 90 202.989 90.675 202.989 91.5ZM28.8481 106.158C26.8451 107.319 24.2571 109.957 23.0981 112.021C21.0601 115.646 20.9891 117.001 20.9891 152.152C20.9891 185.676 21.1351 188.803 22.8441 191.991C23.9391 194.031 26.4651 196.383 29.0021 197.725C33.2311 199.961 33.8741 200 66.9891 200C100.104 200 100.747 199.961 104.976 197.725C107.513 196.383 110.039 194.031 111.134 191.991C112.814 188.858 112.989 185.898 112.989 160.682C112.989 138.848 112.719 132.923 111.739 133.249C110.796 133.562 110.366 140.435 109.989 161.261C109.518 187.283 109.369 189.02 107.395 191.679C106.244 193.231 103.769 195.037 101.895 195.694C99.5441 196.518 88.5811 196.904 66.4891 196.942C37.9551 196.991 34.1101 196.807 30.9891 195.248C29.0221 194.266 26.7441 192.008 25.7881 190.092C24.2861 187.084 24.0861 182.681 24.0821 152.592C24.0791 128.532 24.4331 117.498 25.2841 115.094C25.9471 113.22 27.7461 110.755 29.2821 109.616C31.4161 108.034 34.1121 107.422 40.7031 107.023C46.3221 106.682 49.4741 106.064 49.7431 105.25C50.0531 104.312 47.9501 104.006 41.3221 104.023C34.1781 104.042 31.7931 104.45 28.8481 106.158ZM188.235 105.25C188.502 106.062 191.597 106.675 197.068 107C201.7 107.275 206.526 108.091 207.793 108.814C209.059 109.536 210.97 111.561 212.039 113.314C213.67 115.989 213.982 118.379 213.985 128.219C213.988 138.223 214.208 139.853 215.489 139.362C216.702 138.896 216.989 136.585 216.989 127.279C216.989 117.412 216.687 115.235 214.871 112.004C213.706 109.931 211.058 107.283 208.985 106.118C205.95 104.412 203.525 104 196.52 104C190.009 104 187.926 104.314 188.235 105.25ZM69.6561 131.667C69.2891 132.033 68.9891 137.603 68.9891 144.044C68.9891 152.997 69.3271 156.036 70.4241 156.946C71.2131 157.601 73.3501 157.993 75.1741 157.818C76.9971 157.643 78.4001 157.05 78.2921 156.5C78.1831 155.95 77.2831 155.339 76.2921 155.142C75.3001 154.946 73.8811 154.29 73.1371 153.686C72.1391 152.874 71.8501 150.092 72.0321 143.043C72.1671 137.794 72.2131 132.938 72.1331 132.25C72.0541 131.563 71.6141 131 71.1561 131C70.6971 131 70.0221 131.3 69.6561 131.667ZM153.628 131.694C153.277 132.046 152.989 134.508 152.989 137.167C152.989 140.796 153.363 142 154.489 142C155.62 142 155.989 140.784 155.989 137.059C155.989 134.341 155.602 131.879 155.128 131.586C154.655 131.294 153.98 131.342 153.628 131.694ZM185.628 131.694C185.277 132.046 184.989 134.508 184.989 137.167C184.989 140.796 185.363 142 186.489 142C187.62 142 187.989 140.784 187.989 137.059C187.989 134.341 187.602 131.879 187.128 131.586C186.655 131.294 185.98 131.342 185.628 131.694ZM53.6281 137.694C53.2771 138.046 52.8693 138.099 52.8693 139.108C52.8693 140.116 53.6641 142 54.4891 142C55.3141 142 55.8693 140.068 55.8693 139C55.8693 137.932 55.6021 137.879 55.1281 137.586C54.6551 137.294 53.9801 137.342 53.6281 137.694ZM169.656 139.667C169.289 140.033 168.989 142.283 168.989 144.667C168.989 147.7 169.406 149 170.38 149C171.238 149 171.946 147.566 172.229 145.25C172.481 143.188 172.482 140.938 172.231 140.25C171.98 139.563 171.448 139 171.049 139C170.649 139 170.022 139.3 169.656 139.667ZM171.802 157.683C172.523 157.972 173.386 157.936 173.718 157.604C174.05 157.272 173.46 157.036 172.406 157.079C171.241 157.127 171.004 157.364 171.802 157.683ZM52.9891 167.826C52.9891 168.28 54.0021 169.602 55.2391 170.764C56.4761 171.925 59.5141 173.794 61.9891 174.916C64.4641 176.038 68.1471 176.966 70.1741 176.978C72.2011 176.99 75.1261 176.525 76.6741 175.944C78.2221 175.363 81.1771 173.727 83.2391 172.308C85.3021 170.889 86.9891 169.114 86.9891 168.364C86.9891 167.614 86.5351 167 85.9801 167C85.4261 167 83.1221 168.34 80.8621 169.977C78.6021 171.614 75.1881 173.247 73.2741 173.606C71.3611 173.965 68.1451 173.764 66.1281 173.16C64.1111 172.555 60.9171 170.922 59.0301 169.53C57.1441 168.139 55.0131 167 54.2951 167C53.5771 167 52.9891 167.372 52.9891 167.826ZM152.989 167.826C152.989 168.28 154.001 169.602 155.239 170.764C156.477 171.925 159.514 173.794 161.989 174.916C164.464 176.038 168.147 176.966 170.174 176.978C172.201 176.99 175.126 176.525 176.674 175.944C178.222 175.363 181.177 173.727 183.239 172.308C185.302 170.889 186.989 169.114 186.989 168.364C186.989 167.614 186.535 167 185.98 167C185.426 167 183.122 168.34 180.862 169.977C178.602 171.614 175.188 173.247 173.274 173.606C171.361 173.965 168.145 173.764 166.128 173.16C164.111 172.555 160.917 170.922 159.03 169.53C157.144 168.139 155.013 167 154.295 167C153.577 167 152.989 167.372 152.989 167.826Z" fill="#66FCF1"/>
<path d="M169.382 145.734C169.382 139.293 169.682 133.723 170.049 133.357C170.415 132.99 171.09 132.69 171.549 132.69C172.007 132.69 172.447 133.253 172.526 133.94C172.606 134.628 172.56 139.484 172.425 144.733C172.243 151.782 172.532 154.564 173.53 155.376C174.274 155.98 175.693 156.636 176.685 156.832C177.676 157.029 178.576 157.64 178.685 158.19C178.793 158.74 177.39 159.333 175.567 159.508C173.743 159.683 171.606 159.291 170.817 158.636C169.72 157.726 169.382 154.687 169.382 145.734Z" fill="#66FCF1"/>
<path d="M52.8693 139.108C52.8693 136.449 53.1573 133.987 53.5083 133.635C53.8603 133.283 54.5352 133.235 55.0082 133.527C55.4822 133.82 55.8693 136.282 55.8693 139C55.8693 142.725 55.5002 143.941 54.3692 143.941C53.2432 143.941 52.8693 142.737 52.8693 139.108Z" fill="#66FCF1"/>
<path d="M84.3661 138.772C84.3661 136.113 84.6542 133.651 85.0052 133.299C85.3572 132.947 86.0322 132.899 86.5052 133.191C86.9792 133.484 87.3661 135.946 87.3661 138.664C87.3661 142.389 86.9971 143.605 85.8661 143.605C84.7401 143.605 84.3661 142.401 84.3661 138.772Z" fill="#66FCF1"/>
</svg>
